# AST/ASF file generated using VICON BodyLanguage
# -----------------------------------------------
:version 1.10
:name VICON
:units
  mass 1.0
  length 0.45
  angle deg
:documentation
   .ast/.asf automatically generated from VICON data using
   VICON BodyBuilder and BodyLanguage model FoxedUp or BRILLIANT.MOD
:root
   order TX TY TZ RX RY RZ
   axis XYZ
   position 0 0 0  
   orientation 0 0 0 
:bonedata
  begin
     id 1 
     name lhipjoint
     direction 0.611804 -0.747784 0.257906 
     length 2.29243 
     axis 0 0 0  XYZ
  end
  begin
     id 2 
     name lfemur
     direction 0.34202 -0.939693 0  
     length 7.31159  
     axis 0 0 20  XYZ
    dof rx ry rz
    limits (-160.0 20.0)
           (-70.0 70.0)
           (-60.0 70.0)
  end
  begin
     id 3 
     name ltibia
     direction 0.34202 -0.939693 0   
     length 7.33391   
     axis 0 0 20   XYZ
    dof rx
    limits (-10.0 170.0)
  end
  begin
     id 4 
     name lfoot
     direction 0.122263 -0.335914 0.933924   
     length 1.76083   
     axis -90 7.62852e-016 20   XYZ
    dof rx rz
    limits (-45.0 90.0)
           (-70.0 20.0)
  end
  begin
     id 5 
     name ltoes
     direction 1.53533e-011 -4.2177e-011 1   
     length 0.879206   
     axis -90 7.62852e-016 20   XYZ
    dof rx
    limits (-90.0 20.0)
  end
  begin
     id 6 
     name rhipjoint
     direction -0.646469 -0.721248 0.248754   
     length 2.37677  
     axis 0 0 0  XYZ 
  end
  begin
     id 7 
     name rfemur
     direction -0.34202 -0.939693 0   
     length 7.18623   
     axis 0 0 -20   XYZ
    dof rx ry rz
    limits (-160.0 20.0)
           (-70.0 70.0)
           (-70.0 60.0)
  end
  begin
     id 8 
     name rtibia
     direction -0.34202 -0.939693 0   
     length 7.36567   
     axis 0 0 -20   XYZ
    dof rx
    limits (-10.0 170.0)
 end
 begin
     id 9 
     name rfoot
     direction -0.126681 -0.348054 0.928876   
     length 1.71902  
     axis -90 -7.62852e-016 -20   XYZ
    dof rx rz
    limits (-45.0 90.0)
           (-20.0 70.0)
  end
  begin
     id 10 
     name rtoes
     direction -1.53551e-011 -4.21898e-011 1   
     length 0.857792   
     axis -90 -7.62852e-016 -20   XYZ
    dof rx
    limits (-90.0 20.0)
  end
  begin
     id 11 
     name lowerback
     direction 0.0106509 0.999778 0.0181844   
     length 2.07668   
     axis 0 0 0   XYZ
    dof rx ry rz
    limits (-20.0 45.0)
           (-30.0 30.0)
           (-30.0 30.0)
  end
  begin
     id 12 
     name upperback
     direction -0.00456018 0.999989 -0.000590935   
     length 2.08011   
     axis 0 0 0   XYZ
    dof rx ry rz
    limits (-20.0 45.0)
           (-30.0 30.0)
           (-30.0 30.0)
  end
  begin
     id 13 
     name thorax
     direction -0.00910382 0.999916 -0.00923765   
     length 2.07397   
     axis 0 0 0   XYZ
    dof rx ry rz
    limits (-20.0 45.0)
           (-30.0 30.0)
           (-30.0 30.0)
  end
  begin
     id 14 
     name lowerneck
     direction 0.00171967 0.99778 0.0665733   
     length 1.67556   
     axis 0 0 0   XYZ
    dof rx ry rz
    limits (-20.0 45.0)
           (-30.0 30.0)
           (-30.0 30.0)
  end
  begin
     id 15 
     name upperneck
     direction -0.0143166 0.991302 -0.130828   
     length 1.68462   
     axis 0 0 0   XYZ
    dof rx ry rz
    limits (-20.0 45.0)
           (-30.0 30.0)
           (-30.0 30.0)
  end
  begin
     id 16
     name head
     direction -0.00606378 0.998665 -0.0512995  
     length 1.69269  
     axis 0 0 0   XYZ
    dof rx ry rz
    limits (-20.0 45.0)
           (-30.0 30.0)
           (-30.0 30.0)
  end
  begin
     id 17 
     name lclavicle
     direction 0.9638 0.179341 0.197297  
     length 4.12888  
     axis 0 0 0   XYZ
    dof ry rz
    limits (-20.0 10.0)
           (0.0 20.0)
  end
  begin
     id 18 
     name lhumerus
     direction 1 -4.48972e-011 -2.47351e-027   
     length 5.01834   
     axis -180 -30 -90   XYZ
    dof rx ry rz
    limits (-60.0 90.0)
           (-90.0 90.0)
           (-90.0 90.0)
  end
  begin
     id 19
     name lradius
     direction 1 -4.48965e-011 1.51591e-026   
     length 3.4869   
     axis -180 -30 -90   XYZ
    dof rx
    limits (-10.0 170.0)
  end
  begin
     id 20
     name lwrist
     direction 1 -4.48957e-011 2.70032e-026   
     length 1.74345   
     axis -1.81515e-014 90 90   XYZ
    dof ry
    limits (-180.0 0.0)
 end
  begin
     id 21 
     name lhand
     direction 1 -4.48951e-011 5.40064e-026   
     length 0.76799   
     axis -3.44607e-014 90 90   XYZ
    dof rx rz
    limits (-90.0 90.0)
           (-45.0 45.0)
  end
  begin
     id 22 
     name lfingers
     direction 1 -4.48971e-011 1.08013e-025   
     length 0.619174   
     axis -6.89214e-014 90 90   XYZ
    dof rx
    limits (0.0 90.0)
  end
  begin
     id 23
     name lthumb
     direction 0.707107 -6.34931e-011 0.707107   
     length 0.889013   
     axis -90 45 2.85299e-015   XYZ
    dof rx rz
    limits (-45.0 45.0)
           (-45.0 45.0)
  end
  begin
     id 24 
     name rclavicle
     direction -0.961409 0.252588 0.109054   
     length 4.04305  
     axis 0 0 0   XYZ 
    dof ry rz
    limits (-10.0 20.0)
           (-20.0 0.0)
  end
  begin
     id 25 
     name rhumerus
     direction -1 -4.4897e-011 1.33872e-017  
     length 4.70164   
     axis -180 30 90   XYZ
    dof rx ry rz
    limits (-90.0 60.0)
           (-90.0 90.0)
           (-90.0 90.0)
  end
  begin
     id 26 
     name rradius
     direction -1 -4.48954e-011 1.83844e-026   
     length 3.49911   
     axis -180 30 90   XYZ
    dof rx
    limits (-10.0 170.0)
  end
  begin
     id 27 
     name rwrist
     direction -1 -4.49008e-011 2.70032e-026   
     length 1.74955   
     axis -1.81515e-014 -90 -90   XYZ
    dof ry
    limits (-180.0 0.0)
  end
  begin
     id 28
     name rhand
     direction -1 -4.48916e-011 5.40064e-026   
     length 0.739335   
     axis -3.44607e-014 -90 -90   XYZ
    dof rx rz
    limits (-90.0 90.0)
           (-45.0 45.0)
  end
  begin
     id 29
     name rfingers
     direction -1 -4.48987e-011 1.08013e-025   
     length 0.596071   
     axis -6.89214e-014 -90 -90   XYZ
    dof rx
    limits (0.0 90.0)
  end
  begin
     id 30
     name rthumb
     direction -0.707107 -6.34935e-011 0.707107   
     length 0.855843   
     axis -90 -45 -2.85299e-015   XYZ
    dof rx rz
    limits (-45.0 45.0)
           (-45.0 45.0)
  end
:hierarchy
  begin
    root lhipjoint rhipjoint lowerback
    lhipjoint lfemur
    lfemur ltibia
    ltibia lfoot
    lfoot ltoes
    rhipjoint rfemur
    rfemur rtibia
    rtibia rfoot
    rfoot rtoes
    lowerback upperback
    upperback thorax
    thorax lowerneck lclavicle rclavicle
    lowerneck upperneck
    upperneck head
    lclavicle lhumerus
    lhumerus lradius
    lradius lwrist
    lwrist lhand lthumb
    lhand lfingers
    rclavicle rhumerus
    rhumerus rradius
    rradius rwrist
    rwrist rhand rthumb
    rhand rfingers
  end

#!OML:ASF I:\salsa\salsa 7_09\Patient 1\Session 1\dancermale.ASF
:FULLY-SPECIFIED
:DEGREES
1368
root -3.54202 17.5716 -2.01183 392.408 -607.757 -346.519
lowerback -11.2402 3.81286 7.37791
upperback -9.44831 5.15159 -6.02285
thorax -2.60102 2.39074 -10.1406
lowerneck 5.69287 -9.65327 1.29154
upperneck 2.39064 -12.6415 8.26965
head 0.290303 -6.26144 2.5301
rclavicle 5.46658e-015 -4.29375e-014
rhumerus 43.0493 11.7037 20.7373
rradius 44.2285
rwrist -9.16512
rhand -2.5114 728.594
rfingers 7.12502
rthumb 23.1828 -20.0312
lclavicle 5.46658e-015 -4.29375e-014
lhumerus 9.33773 -20.3068 65.8126
lradius 103.158
lwrist 38.7171
lhand 14.5578 46.0646
lfingers 7.12502
lthumb 39.4353 71.4585
rfemur -43.8839 -6.40207 27.9856
rtibia 30.2927
rfoot -6.83805 -15.211
rtoes 39.2847
lfemur -200.409 187.008 -191.735
ltibia 9.85935
lfoot -7.61845 12.8906
ltoes -38.5555
1369
root -3.43403 17.5454 -1.96183 391.473 -606.709 -347.137
lowerback -11.2056 3.93962 7.50883
upperback -9.38779 5.31782 -6.18473
thorax -2.4956 2.47539 -10.3743
lowerneck 5.81344 -9.89134 0.998203
upperneck 2.11323 -12.9597 8.41211
head 0.224881 -6.43744 2.64057
rclavicle 3.06128e-014 7.95139e-015
rhumerus 45.1901 11.0035 20.2182
rradius 42.4389
rwrist -7.59262
rhand -3.4679 728.208
rfingers 7.12502
rthumb 22.2649 -20.5297
lclavicle 3.06128e-014 7.95139e-015
lhumerus 10.6488 -21.8567 65.7607
lradius 103.11
lwrist 38.9989
lhand 14.4117 46.0119
lfingers 7.12502
lthumb 39.2976 71.446
rfemur -42.6647 -6.59952 28.0634
rtibia 29.0333
rfoot -6.24421 -14.9527
rtoes 41.4548
lfemur -199.928 187.053 -191.33
ltibia 9.93339
lfoot -8.42654 12.3507
ltoes -39.0676
1370
root -3.31811 17.5179 -1.90424 390.22 -605.848 -348.016
lowerback -11.1249 4.05618 7.38286
upperback -9.25272 5.4869 -6.41149
thorax -2.3412 2.57538 -10.5266
lowerneck 5.58659 -10.1165 0.828636
upperneck 2.08906 -13.2848 8.5197
head 0.28907 -6.5978 2.68936
rclavicle 5.92378e-014 4.13472e-014
rhumerus 47.0589 10.2266 18.8205
rradius 40.7451
rwrist -6.327
rhand -4.54706 727.826
rfingers 7.12502
rthumb 21.2285 -21.0319
lclavicle 5.92378e-014 4.13472e-014
lhumerus 12.0393 -23.1908 65.4984
lradius 102.985
lwrist 39.3363
lhand 14.4287 45.9321
lfingers 7.12502
lthumb 39.3136 71.3616
rfemur -41.3512 -6.67967 27.9881
rtibia 28.6978
rfoot -7.52819 -13.5373
rtoes 42.239
lfemur -199.608 187.181 -191.077
ltibia 10.5803
lfoot -9.49639 12.0857
ltoes -39.6546
1371
root -3.19907 17.493 -1.84802 388.839 -605.187 -349.039
lowerback -10.9893 4.24024 7.20073
upperback -9.10391 5.756 -6.7724
thorax -2.1694 2.72854 -10.7851
lowerneck 4.97983 -10.3819 1.02354
upperneck 2.30355 -13.6715 8.45495
head 0.458153 -6.76666 2.59111
rclavicle 2.96189e-014 -4.77083e-014
rhumerus 48.5295 9.39075 16.4146
rradius 39.0558
rwrist -4.16979
rhand -5.14094 727.95
rfingers 7.12502
rthumb 20.658 -20.9703
lclavicle 2.96189e-014 -4.77083e-014
lhumerus 13.445 -24.5349 65.0581
lradius 102.834
lwrist 39.8802
lhand 14.1882 45.6929
lfingers 7.12502
lthumb 39.087 71.188
rfemur -39.9074 -6.50459 27.6206
rtibia 28.0909
rfoot -9.09101 -12.7018
rtoes 42.2518
lfemur -199.62 187.297 -191.029
ltibia 11.9954
lfoot -10.7955 12.2219
ltoes -40.6206
1372
root -3.07878 17.4689 -1.79762 388.017 -604.574 -349.609
lowerback -10.9997 4.49718 7.27863
upperback -9.00406 6.10208 -7.1283
thorax -1.93338 2.91463 -11.1729
lowerneck 4.40556 -10.591 1.08634
upperneck 2.54692 -13.9925 8.557
head 0.649414 -6.90124 2.56745
rclavicle -2.73329e-014 -1.11319e-014
rhumerus 49.9248 8.97617 14.6005
rradius 37.8098
rwrist -2.73408
rhand -5.45205 728.091
rfingers 7.12502
rthumb 20.359 -20.8615
lclavicle -2.73329e-014 -1.11319e-014
lhumerus 14.593 -25.7805 64.6063
lradius 102.761
lwrist 40.597
lhand 14.0897 45.7166
lfingers 7.12502
lthumb 38.9941 71.2383
rfemur -38.4301 -6.35742 27.4304
rtibia 26.9958
rfoot -10.685 -12.1812
rtoes 41.3816
lfemur -200.163 187.359 -190.849
ltibia 14.1749
lfoot -11.9602 12.6735
ltoes -41.849
1373
root -2.96203 17.4459 -1.74878 387.938 -603.894 -349.475
lowerback -11.0195 4.74442 7.6794
upperback -9.08822 6.42185 -7.36845
thorax -1.88135 3.06439 -11.6392
lowerneck 4.60706 -10.7239 0.972148
upperneck 2.27901 -14.1459 8.8398
head 0.568444 -6.99019 2.69683
rclavicle -3.54831e-014 -3.02153e-014
rhumerus 51.2964 9.23619 13.1367
rradius 37.0254
rwrist -1.64943
rhand -5.93432 728.016
rfingers 7.12502
rthumb 19.8955 -20.9861
lclavicle -3.54831e-014 -3.02153e-014
lhumerus 15.0677 -26.87 64.2573
lradius 102.821
lwrist 41.2917
lhand 14.403 46.0528
lfingers 7.12502
lthumb 39.2894 71.4894
rfemur -37.0088 -6.66226 27.9218
rtibia 25.5799
rfoot -11.4814 -11.6118
rtoes 41.0109
lfemur -201.428 187.359 -190.378
ltibia 17.5291
lfoot -12.7246 13.4791
ltoes -42.8703
1374
root -2.85154 17.4241 -1.69869 388.479 -603.252 -348.721
lowerback -10.9393 4.9802 8.21322
upperback -9.36782 6.73116 -7.45166
thorax -2.10002 3.18538 -12.0334
lowerneck 5.474 -10.9212 1.02526
upperneck 1.56565 -14.3065 8.96169
head 0.209382 -7.11543 2.81103
rclavicle 4.12478e-014 3.97569e-014
rhumerus 52.7603 10.2479 12.7965
rradius 36.7409
rwrist -1.61239
rhand -6.6131 727.66
rfingers 7.12502
rthumb 19.2429 -21.4079
lclavicle 4.12478e-014 3.97569e-014
lhumerus 14.8818 -27.8835 64.1527
lradius 102.907
lwrist 41.6685
lhand 14.6948 46.0838
lfingers 7.12502
lthumb 39.5643 71.4398
rfemur -36.1262 -6.91918 28.875
rtibia 24.8264
rfoot -12.1827 -11.2582
rtoes 41.1417
lfemur -203.354 187.266 -189.683
ltibia 22.0583
lfoot -13.15 14.5847
ltoes -42.6504
1375
root -2.74831 17.4059 -1.64974 389.261 -602.717 -347.635
lowerback -10.8281 5.27696 8.80805
upperback -9.50427 7.09957 -7.44104
thorax -2.16239 3.34043 -12.3383
lowerneck 5.90536 -11.1444 1.10024
upperneck 1.02794 -14.5345 9.07739
head -0.0201049 -7.25776 2.88811
rclavicle 8.8161e-014 -3.49861e-014
rhumerus 54.1616 11.2545 13.0368
rradius 36.6369
rwrist -1.85978
rhand -7.35323 727.424
rfingers 7.12502
rthumb 18.5311 -21.7137
lclavicle 8.8161e-014 -3.49861e-014
lhumerus 14.7322 -28.861 64.0802
lradius 103.004
lwrist 41.9906
lhand 14.4086 45.7632
lfingers 7.12502
lthumb 39.2946 71.1982
rfemur -35.5911 -7.06735 30.014
rtibia 24.7169
rfoot -12.628 -11.1005
rtoes 41.0699
lfemur -205.332 187.051 -188.978
ltibia 26.8938
lfoot -13.0778 15.3973
ltoes -41.223
1376
root -2.65134 17.3957 -1.60229 389.877 -602.188 -346.619
lowerback -10.7193 5.59429 9.39025
upperback -9.41406 7.47298 -7.43685
thorax -1.96651 3.51542 -12.6202
lowerneck 5.79521 -11.3748 1.28451
upperneck 0.674501 -14.8068 9.14551
head -0.109684 -7.40274 2.88861
rclavicle 1.75924e-014 -9.54166e-015
rhumerus 55.3858 12.0769 12.7212
rradius 36.3082
rwrist -1.34312
rhand -8.15252 727.516
rfingers 7.12502
rthumb 17.7621 -21.6928
lclavicle 1.75924e-014 -9.54166e-015
lhumerus 14.7536 -29.836 63.9858
lradius 103.151
lwrist 42.1988
lhand 14.1427 45.5583
lfingers 7.12502
lthumb 39.0441 71.0657
rfemur -35.2196 -6.78058 30.9065
rtibia 25.193
rfoot -13.3612 -11.2146
rtoes 41.4904
lfemur -207.344 186.89 -188.433
ltibia 32.0662
lfoot -12.5672 15.848
ltoes -39.6985
